Coordinates
version=1
nRows=8
nColumns=40
inDegrees=yes

Units are S.I. units (second, meters, Newtons, ...)
Angles are in degrees.

endheader
time	pelvis_tilt	pelvis_list	pelvis_rotation	pelvis_tx	pelvis_ty	pelvis_tz	hip_flexion_r	hip_adduction_r	hip_rotation_r	knee_angle_r	knee_angle_r_beta	ankle_angle_r	subtalar_angle_r	mtp_angle_r	hip_flexion_l	hip_adduction_l	hip_rotation_l	knee_angle_l	knee_angle_l_beta	ankle_angle_l	subtalar_angle_l	mtp_angle_l	lumbar_extension	lumbar_bending	lumbar_rotation	arm_flex_r	arm_add_r	arm_rot_r	elbow_flex_r	pro_sup_r	wrist_flex_r	wrist_dev_r	arm_flex_l	arm_add_l	arm_rot_l	elbow_flex_l	pro_sup_l	wrist_flex_l	wrist_dev_l
     22.17928571	     -9.15698489	     -5.00305722	      8.37829700	      0.99236185	      0.91468510	      0.51418033	     10.65248981	      3.61661817	    -15.31748275	     18.03112934	     18.03112934	     17.54078014	     -7.28074125	     -2.23468259	     32.91476557	     -7.17354929	      0.03727676	     17.07814814	     17.07814814	      1.56314380	     -5.76449124	      1.10601077	     -9.85638397	      4.26531167	      3.16024100	     40.75000021	    -17.72610790	    -11.09246138	     99.25390592	     44.28102077	      0.00000000	      0.00000000	    -13.11768372	     -8.68966951	     16.76946491	     33.67024852	     43.99955735	      0.00000000	      0.00000000
     22.19857143	     -9.19519548	     -5.19210379	      8.31297297	      0.99245204	      0.91374076	      0.51125268	     10.28227444	      3.68689351	    -15.18951682	     18.04271479	     18.04271479	     17.82066466	     -7.30012107	     -2.25642522	     32.96372829	     -7.20918600	     -0.09193337	     17.70811560	     17.70811560	      1.52696131	     -6.33551925	      0.77549631	     -9.82364513	      4.09279743	      3.21969950	     41.63883360	    -17.31255463	    -10.98620699	     99.81872905	     44.27103740	      0.00000000	      0.00000000	    -12.76110817	     -8.70766324	     16.80492495	     33.55922372	     44.01298673	      0.00000000	      0.00000000
     22.21785714	     -9.20026199	     -5.39485522	      8.23107595	      0.99287536	      0.91294859	      0.50817721	      9.85415000	      3.79254895	    -14.95350141	     18.04613738	     18.04613738	     18.15477176	     -7.42818211	     -1.84893222	     32.94628606	     -7.25491959	      0.00975232	     18.40110273	     18.40110273	      0.90975440	     -7.45820317	     -0.93587693	     -9.76743232	      3.96444564	      3.23325215	     42.16429164	    -16.90076931	    -10.66295067	    100.55003139	     44.29626502	      0.00000000	      0.00000000	    -11.90687558	     -8.58068196	     16.82948272	     32.26565199	     44.11135657	      0.00000000	      0.00000000
     22.23714286	     -9.14065827	     -5.54174007	      8.10090572	      0.99358819	      0.91242650	      0.50497561	      9.31566559	      3.81443214	    -14.79360863	     18.02732038	     18.02732038	     18.34567933	     -7.34668940	     -1.84278351	     32.98851544	     -7.30872266	      0.06729996	     19.52790492	     19.52790492	      1.06902480	     -8.27183610	     -1.23115572	     -9.75546055	      3.74142607	      3.32089143	     42.45521501	    -16.60200951	    -10.57303982	    100.74620264	     44.29537729	      0.00000000	      0.00000000	    -11.31034484	     -8.75423991	     16.75755366	     32.23136974	     44.14027150	      0.00000000	      0.00000000
     22.25642857	     -9.07285360	     -5.68737429	      7.96208746	      0.99450309	      0.91213934	      0.50159750	      8.73857211	      3.82758907	    -14.63895228	     17.97061196	     17.97061196	     18.44673702	     -7.26801984	     -1.78270066	     33.01443035	     -7.33952420	      0.28310635	     20.70449887	     20.70449887	      1.29954241	     -9.18738670	     -1.45204577	     -9.71338083	      3.55594806	      3.36658624	     42.53905995	    -16.28607730	    -10.46467608	    100.87328025	     44.29567609	      0.00000000	      0.00000000	    -10.55609190	     -8.97533770	     16.64442881	     32.08445796	     44.17808324	      0.00000000	      0.00000000
     22.27571429	     -9.01131351	     -5.83881483	      7.81632088	      0.99553040	      0.91210902	      0.49803423	      8.13934871	      3.82752460	    -14.53942391	     17.86029019	     17.86029019	     18.42974912	     -7.14339288	     -1.66977387	     33.00999709	     -7.32962802	      0.66637304	     21.83765309	     21.83765309	      1.62159043	    -10.22392381	     -1.43693199	     -9.64357448	      3.40804518	      3.46867242	     42.43860139	    -16.05375946	    -10.41274101	    100.85353166	     44.30552135	      0.00000000	      0.00000000	     -9.58835792	     -9.21665702	     16.42447737	     31.76303452	     44.24001251	      0.00000000	      0.00000000
     22.29500000	     -8.89960568	     -5.92059671	      7.62936378	      0.99672853	      0.91238966	      0.49432773	      7.47945126	      3.73666170	    -14.40520901	     17.77912237	     17.77912237	     18.37558771	     -6.92202650	     -1.61142485	     32.85066057	     -7.25870112	      1.00297362	     22.84241376	     22.84241376	      2.08099763	    -11.15045314	     -1.25445887	     -9.58406811	      3.22794165	      3.62191895	     42.12781772	    -15.90840942	    -10.41715476	    100.61988773	     44.32219887	      0.00000000	      0.00000000	     -8.55355426	     -9.50790664	     16.12437101	     31.51995987	     44.31273692	      0.00000000	      0.00000000
     22.31428571	     -8.84679002	     -5.91058547	      7.41717918	      0.99790502	      0.91296648	      0.49040597	      6.89280304	      3.47323472	    -14.44304683	     17.73776442	     17.73776442	     18.18979237	     -6.46179697	     -1.73351127	     32.66455803	     -7.02945881	      1.43413184	     23.75998079	     23.75998079	      3.18243030	    -11.93552785	      0.77401333	     -9.45571470	      2.97190723	      3.97761374	     41.56481287	    -15.84738558	    -10.85186697	    100.20130491	     44.40029151	      0.00000000	      0.00000000	     -6.94763079	     -9.46674583	     14.64985121	     30.11270620	     44.62286273	      0.00000000	      0.00000000
